<svg xmlns="http://www.w3.org/2000/svg" viewBox="0 0 760 608" role="img" aria-labelledby="title"><title id="title">Paper 1 — HIPAA Safe Harbor per-category recall</title><style>.bg{fill:#ffffff}.axis{stroke:#57606a;fill:#57606a}.text{fill:#1f2328;font-family:-apple-system,BlinkMacSystemFont,'Segoe UI',Helvetica,Arial,sans-serif}.grid{stroke:#d0d7de}@media (prefers-color-scheme: dark){.bg{fill:#0d1117}.axis{stroke:#9da7b1;fill:#9da7b1}.text{fill:#e6edf3}.grid{stroke:#30363d}}</style><rect class="bg" width="760" height="608"/><text class="text" x="20" y="30" font-size="18" font-weight="600">Paper 1 — HIPAA Safe Harbor per-category recall</text><text class="text" x="20" y="52" font-size="12">MTSamples (CC0) + synthetic PII injection at i2b2 density, 500-row Measurement B subset, tuned sanitizer.</text><line class="grid" x1="200" y1="70" x2="200" y2="538" stroke-width="1"/><text class="text" x="200" y="556" font-size="11" text-anchor="middle">0%</text><line class="grid" x1="322.5" y1="70" x2="322.5" y2="538" stroke-width="1"/><text class="text" x="322.5" y="556" font-size="11" text-anchor="middle">25%</text><line class="grid" x1="445" y1="70" x2="445" y2="538" stroke-width="1"/><text class="text" x="445" y="556" font-size="11" text-anchor="middle">50%</text><line class="grid" x1="567.5" y1="70" x2="567.5" y2="538" stroke-width="1"/><text class="text" x="567.5" y="556" font-size="11" text-anchor="middle">75%</text><line class="grid" x1="690" y1="70" x2="690" y2="538" stroke-width="1"/><text class="text" x="690" y="556" font-size="11" text-anchor="middle">100%</text><text class="text" x="190" y="87" font-size="11" text-anchor="end">NAME</text><rect x="200" y="76" width="453.61" height="16" fill="#2da44e" rx="2"/><text class="text" x="659.6085626911315" y="87" font-size="11">92.6% (n=2289)</text><text class="text" x="190" y="113" font-size="11" text-anchor="end">GEO_SUBDIVISION</text><rect x="200" y="102" width="409.14" height="16" fill="#bf8700" rx="2"/><text class="text" x="615.1379310344828" y="113" font-size="11">83.5% (n=1624)</text><text class="text" x="190" y="139" font-size="11" text-anchor="end">DATE</text><rect x="200" y="128" width="263.92" height="16" fill="#bf8700" rx="2"/><text class="text" x="469.92276422764223" y="139" font-size="11">53.9% (n=3936)</text><text class="text" x="190" y="165" font-size="11" text-anchor="end">PHONE</text><rect x="200" y="154" width="476.20" height="16" fill="#2da44e" rx="2"/><text class="text" x="682.1971830985915" y="165" font-size="11">97.2% (n=213)</text><text class="text" x="190" y="191" font-size="11" text-anchor="end">FAX</text><rect x="200" y="180" width="483.38" height="16" fill="#2da44e" rx="2"/><text class="text" x="689.3783783783783" y="191" font-size="11">98.6% (n=222)</text><text class="text" x="190" y="217" font-size="11" text-anchor="end">EMAIL</text><rect x="200" y="206" width="482.10" height="16" fill="#2da44e" rx="2"/><text class="text" x="688.0967741935484" y="217" font-size="11">98.4% (n=248)</text><text class="text" x="190" y="243" font-size="11" text-anchor="end">SSN</text><rect x="200" y="232" width="487.78" height="16" fill="#2da44e" rx="2"/><text class="text" x="693.7828054298643" y="243" font-size="11">99.5% (n=221)</text><text class="text" x="190" y="269" font-size="11" text-anchor="end">MRN</text><rect x="200" y="258" width="469.17" height="16" fill="#2da44e" rx="2"/><text class="text" x="675.17004048583" y="269" font-size="11">95.7% (n=494)</text><text class="text" x="190" y="295" font-size="11" text-anchor="end">HEALTH_PLAN_ID</text><rect x="200" y="284" width="490.00" height="16" fill="#2da44e" rx="2"/><text class="text" x="696" y="295" font-size="11">100.0% (n=361)</text><text class="text" x="190" y="321" font-size="11" text-anchor="end">ACCOUNT_NUMBER</text><rect x="200" y="310" width="490.00" height="16" fill="#2da44e" rx="2"/><text class="text" x="696" y="321" font-size="11">100.0% (n=344)</text><text class="text" x="190" y="347" font-size="11" text-anchor="end">LICENSE_NUMBER</text><rect x="200" y="336" width="485.20" height="16" fill="#2da44e" rx="2"/><text class="text" x="691.1960784313726" y="347" font-size="11">99.0% (n=204)</text><text class="text" x="190" y="373" font-size="11" text-anchor="end">VEHICLE_ID</text><rect x="200" y="362" width="364.80" height="16" fill="#bf8700" rx="2"/><text class="text" x="570.8017621145374" y="373" font-size="11">74.4% (n=227)</text><text class="text" x="190" y="399" font-size="11" text-anchor="end">DEVICE_ID</text><rect x="200" y="388" width="487.97" height="16" fill="#2da44e" rx="2"/><text class="text" x="693.9668049792531" y="399" font-size="11">99.6% (n=241)</text><text class="text" x="190" y="425" font-size="11" text-anchor="end">URL</text><rect x="200" y="414" width="477.98" height="16" fill="#2da44e" rx="2"/><text class="text" x="683.9754601226994" y="425" font-size="11">97.5% (n=163)</text><text class="text" x="190" y="451" font-size="11" text-anchor="end">IP_ADDRESS</text><rect x="200" y="440" width="465.19" height="16" fill="#2da44e" rx="2"/><text class="text" x="671.1898734177216" y="451" font-size="11">94.9% (n=158)</text><text class="text" x="190" y="477" font-size="11" text-anchor="end">BIOMETRIC_ID</text><rect x="200" y="466" width="485.50" height="16" fill="#2da44e" rx="2"/><text class="text" x="691.5045871559633" y="477" font-size="11">99.1% (n=109)</text><text class="text" x="190" y="503" font-size="11" text-anchor="end">FACE_PHOTO_REF</text><rect x="200" y="492" width="472.34" height="16" fill="#2da44e" rx="2"/><text class="text" x="678.3423423423424" y="503" font-size="11">96.4% (n=111)</text><text class="text" x="190" y="529" font-size="11" text-anchor="end">OTHER_UNIQUE_ID</text><rect x="200" y="518" width="481.83" height="16" fill="#2da44e" rx="2"/><text class="text" x="687.8333333333333" y="529" font-size="11">98.3% (n=120)</text><text class="text" x="445" y="574" font-size="11" text-anchor="middle">Recall (true positives ÷ ground truth, %)</text><rect x="20" y="561" width="12" height="12" fill="#2da44e" rx="2"/><text class="text" x="38" y="570" font-size="11">≥ 90% recall</text><rect x="160" y="561" width="12" height="12" fill="#bf8700" rx="2"/><text class="text" x="178" y="570" font-size="11">&lt; 90% recall</text><text class="text" x="20" y="590" font-size="10" opacity="0.75">Source: paper-1-healthcare/raw-results/paper1-AFTER-500row-20260522T080037Z.ndjson</text><text class="text" x="20" y="602" font-size="10" opacity="0.75">Green: recall ≥ 90%. Orange: recall &lt; 90%. n = ground-truth annotations in this category.</text></svg>